<?xml version="1.0" ?><!DOCTYPE svg  PUBLIC '-//W3C//DTD SVG 1.1//EN'  'http://www.w3.org/Graphics/SVG/1.1/DTD/svg11.dtd'><svg width="32px" height="32px" viewBox="0 0 32 32" style="fill-rule:evenodd;clip-rule:evenodd;stroke-linejoin:round;stroke-miterlimit:1.41421;" version="1.1" xml:space="preserve" xmlns="http://www.w3.org/2000/svg" xmlns:serif="http://www.serif.com/" xmlns:xlink="http://www.w3.org/1999/xlink"><rect height="32" id="Trash-Bin" style="fill:none;" width="32" x="0" y="0"/><path d="M26.096,10.005c0.031,0.004 0.063,0.007 0.094,0.013c0.281,0.055 0.535,0.236 0.679,0.486c0.079,0.139 0.124,0.296 0.13,0.456c0.001,0.032 0,0.064 -0.001,0.095c-0.315,5.688 -0.625,11.375 -0.947,17.062c-0.032,0.519 -0.271,1.017 -0.652,1.363c-0.363,0.33 -0.848,0.518 -1.339,0.52c-5.373,0.008 -10.747,0.008 -16.12,0c-0.503,-0.002 -0.999,-0.2 -1.364,-0.543c-0.369,-0.347 -0.598,-0.839 -0.627,-1.345l-0.947,-17.057c-0.001,-0.031 -0.002,-0.063 -0.001,-0.095c0.011,-0.287 0.153,-0.566 0.378,-0.744c0.15,-0.119 0.335,-0.193 0.525,-0.211c0.032,-0.003 0.064,-0.003 0.096,-0.005l20,0c0.032,0.002 0.064,0.003 0.096,0.005Z" style="fill:#d9d9d9;"/><path d="M16,10l10,0c0.032,0.002 0.064,0.003 0.096,0.005c0.031,0.004 0.063,0.007 0.094,0.013c0.281,0.055 0.535,0.236 0.679,0.486c0.079,0.139 0.124,0.296 0.13,0.456c0.001,0.032 0,0.064 -0.001,0.095c-0.315,5.688 -0.625,11.375 -0.947,17.062c-0.032,0.519 -0.271,1.017 -0.652,1.363c-0.363,0.33 -0.848,0.518 -1.339,0.52c-2.686,0.004 -5.373,0.006 -8.06,0.006l0,-20.006Z" style="fill:#b3b3b3;"/><path d="M13,5.993l0,-0.994c0.001,-0.807 0.342,-1.61 0.93,-2.17c0.519,-0.495 1.222,-0.794 1.936,-0.826c0.048,-0.002 0.095,-0.003 0.144,-0.003c0.776,0.004 1.538,0.316 2.092,0.86c0.567,0.556 0.897,1.344 0.898,2.139l0,0.994c2.335,0.001 4.671,0.003 7.006,0.007c0.517,0.002 1.032,0.214 1.399,0.577c0.375,0.37 0.592,0.886 0.595,1.417c0.001,0.671 0.001,1.341 0,2.012c-0.003,0.558 -0.249,1.108 -0.662,1.481c-0.362,0.326 -0.846,0.511 -1.332,0.513c-6.671,0.01 -13.341,0.01 -20.012,0c-0.546,-0.003 -1.084,-0.237 -1.456,-0.635c-0.34,-0.364 -0.536,-0.863 -0.538,-1.359c-0.001,-0.671 -0.001,-1.341 0,-2.012c0.003,-0.648 0.338,-1.29 0.89,-1.658c0.324,-0.216 0.71,-0.334 1.104,-0.336c2.335,-0.004 4.671,-0.006 7.006,-0.007Zm4,-0.001c0,-0.333 0.002,-0.666 0,-0.999c-0.003,-0.321 -0.17,-0.636 -0.434,-0.818c-0.163,-0.112 -0.36,-0.173 -0.559,-0.175c-0.004,0 -0.007,0 -0.01,0c-0.323,0.002 -0.641,0.17 -0.823,0.437c-0.113,0.164 -0.174,0.363 -0.174,0.564l0,0.991l1,0l1,0Z" style="fill:#e6e6e6;fill-rule:nonzero;"/><path d="M16,2l0.01,0c0.776,0.004 1.538,0.316 2.092,0.86c0.567,0.556 0.897,1.344 0.898,2.139l0,0.994c2.335,0.001 4.671,0.003 7.006,0.007c0.517,0.002 1.032,0.214 1.399,0.577c0.375,0.37 0.592,0.886 0.595,1.417c0.001,0.671 0.001,1.341 0,2.012c-0.003,0.558 -0.249,1.108 -0.662,1.481c-0.362,0.326 -0.846,0.511 -1.332,0.513c-3.335,0.005 -6.671,0.008 -10.006,0.008l0,-6.016c0,0 1,0 1,0c0,-0.333 0.002,-0.666 0,-0.999c-0.003,-0.321 -0.17,-0.636 -0.434,-0.818c-0.163,-0.112 -0.36,-0.173 -0.559,-0.175l-0.007,0l0,-2Z" style="fill:#ccc;fill-rule:nonzero;"/><path d="M10.098,15.005c0.032,0.005 0.065,0.008 0.097,0.014c0.352,0.07 0.656,0.342 0.762,0.691c0.019,0.062 0.032,0.127 0.038,0.192c0.003,0.033 0.003,0.065 0.005,0.098l0,8c-0.002,0.033 -0.002,0.065 -0.005,0.098c-0.029,0.293 -0.194,0.57 -0.439,0.733c-0.326,0.218 -0.779,0.222 -1.112,0c-0.217,-0.145 -0.374,-0.379 -0.425,-0.636c-0.017,-0.086 -0.015,-0.108 -0.019,-0.195l0,-8c0.002,-0.033 0.002,-0.065 0.005,-0.098c0.035,-0.357 0.276,-0.687 0.612,-0.826c0.091,-0.037 0.187,-0.062 0.285,-0.071c0.065,-0.007 0.131,-0.003 0.196,0Z" style="fill:#4d4d4d;fill-rule:nonzero;"/><path d="M14.098,14.005c0.032,0.005 0.065,0.008 0.097,0.014c0.257,0.051 0.491,0.208 0.636,0.425c0.091,0.137 0.148,0.295 0.164,0.458c0.003,0.033 0.003,0.065 0.005,0.098l0,10c-0.002,0.033 -0.002,0.065 -0.005,0.098c-0.032,0.325 -0.233,0.629 -0.524,0.784c-0.316,0.169 -0.724,0.152 -1.027,-0.051c-0.217,-0.145 -0.374,-0.379 -0.425,-0.636c-0.017,-0.086 -0.015,-0.108 -0.019,-0.195l0,-10c0.002,-0.033 0.002,-0.065 0.005,-0.098c0.035,-0.357 0.276,-0.687 0.612,-0.826c0.091,-0.037 0.187,-0.062 0.285,-0.071c0.065,-0.007 0.131,-0.003 0.196,0Z" style="fill:#4d4d4d;fill-rule:nonzero;"/><path d="M18.098,14.005c0.032,0.005 0.065,0.008 0.097,0.014c0.352,0.07 0.656,0.342 0.762,0.691c0.019,0.062 0.032,0.127 0.038,0.192c0.003,0.033 0.003,0.065 0.005,0.098l0,10c-0.002,0.033 -0.002,0.065 -0.005,0.098c-0.032,0.325 -0.233,0.629 -0.524,0.784c-0.316,0.169 -0.724,0.152 -1.027,-0.051c-0.217,-0.145 -0.374,-0.379 -0.425,-0.636c-0.017,-0.086 -0.015,-0.108 -0.019,-0.195l0,-10c0.002,-0.033 0.002,-0.065 0.005,-0.098c0.035,-0.357 0.276,-0.687 0.612,-0.826c0.091,-0.037 0.187,-0.062 0.285,-0.071c0.065,-0.007 0.131,-0.003 0.196,0Z" style="fill:#262626;fill-rule:nonzero;"/><path d="M22.098,15.005c0.032,0.005 0.065,0.008 0.097,0.014c0.352,0.07 0.656,0.342 0.762,0.691c0.019,0.062 0.032,0.127 0.038,0.192c0.003,0.033 0.003,0.065 0.005,0.098l0,8c-0.004,0.087 -0.002,0.109 -0.019,0.195c-0.058,0.289 -0.25,0.548 -0.51,0.687c-0.259,0.138 -0.58,0.155 -0.854,0.042c-0.33,-0.137 -0.576,-0.462 -0.612,-0.826c-0.003,-0.033 -0.003,-0.065 -0.005,-0.098l0,-8c0.002,-0.033 0.002,-0.065 0.005,-0.098c0.038,-0.389 0.323,-0.743 0.705,-0.859c0.062,-0.019 0.127,-0.032 0.192,-0.038c0.065,-0.007 0.131,-0.003 0.196,0Z" style="fill:#262626;fill-rule:nonzero;"/></svg>